<svg xmlns="http://www.w3.org/2000/svg" viewBox="0 0 77.87 68.23"><defs><style>.cls-1{fill:#fff;stroke:#000;stroke-miterlimit:10;}</style></defs><title>Ресурс 2</title><g id="Слой_2" data-name="Слой 2"><g id="Слой_1-2" data-name="Слой 1"><path class="cls-1" d="M38.5.5C17.79.5-3,18.55,1,40,5.5,64,54.5,77,44.5,60,16.78,12.88,69.5,58,76,40,83.41,19.48,59.21.5,38.5.5ZM13.5,30a4,4,0,1,1,4-4A4,4,0,0,1,13.5,30Zm12-11a4,4,0,1,1,4-4A4,4,0,0,1,25.5,19Zm19-3a4,4,0,1,1,4-4A4,4,0,0,1,44.5,16Zm17,11a4,4,0,1,1,4-4A4,4,0,0,1,61.5,27Z"/></g></g></svg>