<svg width="42" height="42" viewBox="0 0 42 42" fill="none" xmlns="http://www.w3.org/2000/svg">
<path d="M17.5 5.25V10.5M17.5 10.5H11.5C10.9477 10.5 10.5 10.9477 10.5 11.5V17.5M17.5 10.5H24.5M24.5 5.25V10.5M24.5 10.5H30.5C31.0523 10.5 31.5 10.9477 31.5 11.5V17.5M36.75 17.5H31.5M31.5 17.5V24.5M36.75 24.5H31.5M31.5 24.5V30.5C31.5 31.0523 31.0523 31.5 30.5 31.5H24.5M24.5 36.75V31.5M24.5 31.5H17.5M17.5 36.75V31.5M17.5 31.5H11.5C10.9477 31.5 10.5 31.0523 10.5 30.5V24.5M5.25 24.5H10.5M10.5 24.5V17.5M5.25 17.5H10.5M17.5 17.5V24.5H24.5V17.5H17.5Z" stroke="#E2E4EA" stroke-width="2"/>
</svg>
