<?xml version="1.0" encoding="utf-8"?>
<!-- Generator: Adobe Illustrator 25.3.1, SVG Export Plug-In . SVG Version: 6.00 Build 0)  -->
<svg version="1.1" id="Layer_1" xmlns="http://www.w3.org/2000/svg" xmlns:xlink="http://www.w3.org/1999/xlink" x="0px" y="0px"
	 viewBox="0 0 56 56" style="enable-background:new 0 0 56 56;" xml:space="preserve">
<style type="text/css">
	.st0{fill:url(#SVGID_1_);}
	.st1{fill:url(#SVGID_2_);}
	.st2{fill:url(#SVGID_3_);}
	.st3{fill:url(#SVGID_4_);}
	.st4{fill:url(#SVGID_5_);}
	.st5{fill:url(#SVGID_6_);}
	.st6{fill:url(#SVGID_7_);}
	.st7{fill:url(#SVGID_8_);}
	.st8{fill:url(#SVGID_9_);}
	.st9{fill:url(#SVGID_10_);}
	.st10{fill:url(#SVGID_11_);}
	.st11{fill:url(#SVGID_12_);}
	.st12{fill:url(#SVGID_13_);}
	.st13{fill:url(#SVGID_14_);}
	.st14{fill:url(#SVGID_15_);}
</style>
<g>
	<linearGradient id="SVGID_1_" gradientUnits="userSpaceOnUse" x1="41.1406" y1="-11.8356" x2="47.8409" y2="76.2252">
		<stop  offset="0" style="stop-color:#F43F27"/>
		<stop  offset="0.2378" style="stop-color:#A80B2D"/>
		<stop  offset="0.49" style="stop-color:#8E0939"/>
		<stop  offset="0.7311" style="stop-color:#6D0861"/>
		<stop  offset="0.9756" style="stop-color:#4C0783"/>
	</linearGradient>
	<path class="st0" d="M42.5,6.8c-0.2,0-0.5,0-0.8,0c-0.5,0-1.1,0-1.6,0c-3.3,0.1-6.5,0.7-9.5,1.7l10,3.7l2.3,0.9l2.1,0.8l-3.5,15.6
		c-1.4,6.9-3.9,13.4-7.3,19.4l6.5-7.4l2.3-2.6h0l0,0l0.3-0.3l3.4-3.9c0.5-0.6,0.9-1.2,1.1-2l1.2-4l0,0l5.9-19.6
		C51,7.7,46.8,6.9,42.5,6.8z"/>
	<linearGradient id="SVGID_2_" gradientUnits="userSpaceOnUse" x1="42.4306" y1="9.0165" x2="-29.4451" y2="52.3508">
		<stop  offset="0" style="stop-color:#FF0000"/>
		<stop  offset="1" style="stop-color:#3B36FF"/>
	</linearGradient>
	<path class="st1" d="M42.5,6.8c-0.2,0-0.5,0-0.8,0c-0.5,0-1.1,0-1.6,0c-3.3,0.1-6.5,0.7-9.5,1.7l10,3.7l2.3,0.9l2.1,0.8l9.7-4.6
		C51,7.7,46.8,6.9,42.5,6.8z"/>
	<linearGradient id="SVGID_3_" gradientUnits="userSpaceOnUse" x1="35.2981" y1="1.6901" x2="-36.5777" y2="45.0243">
		<stop  offset="0" style="stop-color:#FF0000"/>
		<stop  offset="1" style="stop-color:#3B36FF"/>
	</linearGradient>
	<path class="st2" d="M9.2,22.8c0.5,0.5,0.9,1.1,1.4,1.6c1.1,1.1,2.2,2.2,3.3,3.2l-1.4-6.1L12,18.9l-1.1-5L28,7.5l0,0
		c3.7-1.3,7.8-2.1,11.9-2.1c0.1,0,0.1,0,0.2,0c0.7,0,1.5,0,2.2,0.1c1,0.1,2,0.2,2.9,0.3l-3-1.1l-2.5-0.9l-5.6-2l-4.3-1.5
		c-1.1-0.4-2.4-0.4-3.5,0L21.4,2L5.9,7.5h0L1.2,9.2C3.1,14.2,5.8,18.8,9.2,22.8z"/>
	<linearGradient id="SVGID_4_" gradientUnits="userSpaceOnUse" x1="64.3999" y1="-1.6429" x2="7.577498e-03" y2="21.0685">
		<stop  offset="0" style="stop-color:#F43F27"/>
		<stop  offset="0.2378" style="stop-color:#A80B2D"/>
		<stop  offset="0.49" style="stop-color:#8E0939"/>
		<stop  offset="0.7311" style="stop-color:#6D0861"/>
		<stop  offset="0.9756" style="stop-color:#4C0783"/>
	</linearGradient>
	<path class="st3" d="M9.2,22.8c0.5,0.5,0.9,1.1,1.4,1.6c1.1,1.1,2.2,2.2,3.3,3.2l-1.4-6.1L12,18.9l-1.1-5L1.2,9.2
		C3.1,14.2,5.8,18.8,9.2,22.8z"/>
	<linearGradient id="SVGID_5_" gradientUnits="userSpaceOnUse" x1="67.2025" y1="18.7259" x2="2.8102" y2="41.4373">
		<stop  offset="0" style="stop-color:#F43F27"/>
		<stop  offset="0.2378" style="stop-color:#A80B2D"/>
		<stop  offset="0.49" style="stop-color:#8E0939"/>
		<stop  offset="0.7311" style="stop-color:#6D0861"/>
		<stop  offset="0.9756" style="stop-color:#4C0783"/>
	</linearGradient>
	<path class="st4" d="M33.6,37.5l-2.7,2.3L28,42.1L14.9,31.4c-1.9-1.5-3.6-3.2-5.3-5.1c-0.5-0.5-1-1.1-1.4-1.7
		c-1.7-2.2-3.2-4.5-4.5-6.9l2.7,9.1l0,0l0.3,1.1l0.9,3.1l0.6,1.9c0.2,0.7,0.6,1.4,1.1,2c0.5,0.5,1.1,1.3,1.9,2.2
		c0.5,0.6,1.1,1.3,1.7,2h0c5.7,6.5,14.7,16.8,15,17.1c4.8-6.7,8.5-14.4,10.6-22.6L33.6,37.5z"/>
	<linearGradient id="SVGID_6_" gradientUnits="userSpaceOnUse" x1="29.6855" y1="-2.4298" x2="36.3858" y2="85.631">
		<stop  offset="0" style="stop-color:#F43F27"/>
		<stop  offset="0.2378" style="stop-color:#A80B2D"/>
		<stop  offset="0.49" style="stop-color:#8E0939"/>
		<stop  offset="0.7311" style="stop-color:#6D0861"/>
		<stop  offset="0.9756" style="stop-color:#4C0783"/>
	</linearGradient>
	<path class="st5" d="M33.6,37.5l-2.7,2.3L28,42.1c0,0,0,11.5,0,13.9c4.8-6.7,8.5-14.4,10.6-22.6L33.6,37.5z"/>
	<linearGradient id="SVGID_7_" gradientUnits="userSpaceOnUse" x1="1.1339" y1="11.5574" x2="10.9464" y2="11.5574">
		<stop  offset="0" style="stop-color:#8133BD"/>
		<stop  offset="1" style="stop-color:#FF4F00"/>
	</linearGradient>
	<polygon class="st6" points="10.8,14 1.2,9.2 10.9,13.7 	"/>
	<linearGradient id="SVGID_8_" gradientUnits="userSpaceOnUse" x1="10.8292" y1="11.2115" x2="25.4667" y2="11.2115">
		<stop  offset="0" style="stop-color:#DA3347"/>
		<stop  offset="1" style="stop-color:#FF4F00"/>
	</linearGradient>
	<polygon class="st7" points="10.8,13.7 25.4,8.5 10.9,14 	"/>
	<linearGradient id="SVGID_9_" gradientUnits="userSpaceOnUse" x1="27.9739" y1="55.1241" x2="27.9739" y2="42.1152">
		<stop  offset="0" style="stop-color:#8E0939"/>
		<stop  offset="1" style="stop-color:#DA3C13"/>
	</linearGradient>
	<polygon class="st8" points="28.1,42.1 28,55.1 27.8,42.1 	"/>
	<linearGradient id="SVGID_10_" gradientUnits="userSpaceOnUse" x1="54.866" y1="11.6287" x2="44.9425" y2="11.6287">
		<stop  offset="0" style="stop-color:#DA3347"/>
		<stop  offset="1" style="stop-color:#FF4F00"/>
	</linearGradient>
	<polygon class="st9" points="44.9,13.8 54.8,9.2 45.1,14.1 	"/>
	<linearGradient id="SVGID_11_" gradientUnits="userSpaceOnUse" x1="10.7348" y1="20.7126" x2="14.1374" y2="20.7126">
		<stop  offset="0" style="stop-color:#FF4F00"/>
		<stop  offset="1" style="stop-color:#4C00EC"/>
	</linearGradient>
	<polygon class="st10" points="11,13.8 14,27.6 10.7,13.9 	"/>
	<linearGradient id="SVGID_12_" gradientUnits="userSpaceOnUse" x1="38.6688" y1="37.8119" x2="27.8786" y2="37.8119">
		<stop  offset="0" style="stop-color:#8E0939"/>
		<stop  offset="1" style="stop-color:#DA3C13"/>
	</linearGradient>
	<polygon class="st11" points="27.9,42 38.6,33.4 28.1,42.2 	"/>
	<linearGradient id="SVGID_13_" gradientUnits="userSpaceOnUse" x1="21.5535" y1="31.354" x2="21.5535" y2="42.2311">
		<stop  offset="0" style="stop-color:#5E09B8"/>
		<stop  offset="1" style="stop-color:#DA3C13"/>
	</linearGradient>
	<polygon class="st12" points="27.9,42.2 15,31.5 28.1,42 	"/>
	<linearGradient id="SVGID_14_" gradientUnits="userSpaceOnUse" x1="43.0721" y1="32.4293" x2="43.0721" y2="13.7453">
		<stop  offset="0" style="stop-color:#DA3347"/>
		<stop  offset="1" style="stop-color:#FF4F00"/>
	</linearGradient>
	<polygon class="st13" points="45.2,13.8 40.9,32.4 44.9,13.7 	"/>
	<linearGradient id="SVGID_15_" gradientUnits="userSpaceOnUse" x1="37.8869" y1="8.3495" x2="37.8869" y2="13.9989">
		<stop  offset="0" style="stop-color:#DA3347"/>
		<stop  offset="1" style="stop-color:#FF4F00"/>
	</linearGradient>
	<polygon class="st14" points="45,14 30.6,8.5 45.1,13.7 	"/>
</g>
</svg>
