<svg xmlns="http://www.w3.org/2000/svg" xmlns:serif="http://www.serif.com/" fill-rule="evenodd" stroke-linecap="round" stroke-linejoin="round" stroke-miterlimit="1.5" clip-rule="evenodd" viewBox="0 0 909 351">
    <g transform="translate(-525.807 -86.074)">
        <g id="keyshapes">
            <path id="R4C10_keyshape" fill="#fff" fill-opacity="0.2" stroke="#EFEFEF" stroke-width="1.501" d="M1115.242 393.004a5.258 5.258 0 0 0-4.302-8.279h-76.867a5.257 5.257 0 0 0-5.257 5.257v40.728a5.257 5.257 0 0 0 5.257 5.257h48.253a5.254 5.254 0 0 0 4.302-2.235l28.614-40.728z"/>k
            <path id="R4C9_keyshape" fill="#fff" fill-opacity="0.2" stroke="#EFEFEF" stroke-width="1.501" d="M969.498 389.982a5.257 5.257 0 0 1 5.257-5.257h40.728a5.257 5.257 0 0 1 5.257 5.257v40.728a5.257 5.257 0 0 1-5.257 5.257h-40.728a5.257 5.257 0 0 1-5.257-5.257v-40.728z"/>
            <path id="R4C6_keyshape" fill="#fff" fill-opacity="0.2" stroke="#EFEFEF" stroke-width="1.501" d="M879.471 389.982a5.257 5.257 0 0 1 5.257-5.257h40.728a5.257 5.257 0 0 1 5.257 5.257v40.728a5.257 5.257 0 0 1-5.257 5.257h-40.728a5.257 5.257 0 0 1-5.257-5.257v-40.728z"/>
            <path id="R4C5_keyshape" fill="#fff" fill-opacity="0.2" stroke="#EFEFEF" stroke-width="1.501" d="M784.974 393.004a5.258 5.258 0 0 1 4.302-8.279h76.867a5.257 5.257 0 0 1 5.257 5.257v40.728a5.257 5.257 0 0 1-5.257 5.257H817.89a5.254 5.254 0 0 1-4.302-2.235l-28.614-40.728z"/>
            <path id="R4C8_keyshape" fill="#fff" fill-opacity="0.2" stroke="#EFEFEF" stroke-width="1.8" d="M1.25 8.534c0-4.023 2.523-7.284 5.634-7.284h59.732c3.111 0 5.634 3.261 5.634 7.284v56.432c0 4.023-2.523 7.284-5.634 7.284H6.884c-3.111 0-5.634-3.261-5.634-7.284V8.534z" transform="matrix(.933 0 0 .72172 1366.27 324.343)"/>
            <path id="R4C15_keyshape" fill="#fff" fill-opacity="0.2" stroke="#EFEFEF" stroke-width="1.501" d="M1307.412 330.502a5.257 5.257 0 0 1 5.257-5.257h40.728a5.257 5.257 0 0 1 5.257 5.257v40.728a5.257 5.257 0 0 1-5.257 5.257h-40.728a5.257 5.257 0 0 1-5.257-5.257v-40.728z"/>
            <path id="R4C14_keyshape" fill="#fff" fill-opacity="0.2" stroke="#EFEFEF" stroke-width="1.8" d="M1.25 8.534c0-4.023 2.523-7.284 5.634-7.284h59.732c3.111 0 5.634 3.261 5.634 7.284v56.432c0 4.023-2.523 7.284-5.634 7.284H6.884c-3.111 0-5.634-3.261-5.634-7.284V8.534z" transform="matrix(.933 0 0 .72172 1231.22 324.343)"/>
            <path id="R4C13_keyshape" fill="#fff" fill-opacity="0.2" stroke="#EFEFEF" stroke-width="1.8" d="M1.25 8.534c0-4.023 2.523-7.284 5.634-7.284h59.732c3.111 0 5.634 3.261 5.634 7.284v56.432c0 4.023-2.523 7.284-5.634 7.284H6.884c-3.111 0-5.634-3.261-5.634-7.284V8.534z" transform="matrix(.933 0 0 .72172 1156.19 324.343)"/>
            <path id="R4C12_keyshape" fill="#fff" fill-opacity="0.2" stroke="#EFEFEF" stroke-width="1.64" d="M1.25 8.534c0-1.932.516-3.785 1.436-5.151.919-1.366 2.166-2.133 3.466-2.133h61.196c1.3 0 2.547.767 3.466 2.133.92 1.366 1.436 3.219 1.436 5.151v56.432c0 1.932-.516 3.785-1.436 5.151-.919 1.366-2.166 2.133-3.466 2.133H6.152c-1.3 0-2.547-.767-3.466-2.133-.92-1.366-1.436-3.219-1.436-5.151V8.534z" transform="matrix(1.07244 0 0 .72172 1071.09 324.343)"/>
            <path id="R4C11_keyshape" fill="#fff" fill-opacity="0.2" stroke="#EFEFEF" stroke-width="1.41" d="M1.25 8.534c0-1.932.418-3.785 1.161-5.151.744-1.366 1.752-2.133 2.804-2.133h63.07c1.052 0 2.06.767 2.804 2.133.743 1.366 1.161 3.219 1.161 5.151v56.432c0 1.932-.418 3.785-1.161 5.151-.744 1.366-1.752 2.133-2.804 2.133H5.215c-1.052 0-2.06-.767-2.804-2.133-.743-1.366-1.161-3.219-1.161-5.151V8.534z" transform="matrix(1.32596 0 0 .72172 967.841 324.343)"/>
            <path id="R4C4_keyshape" fill="#fff" fill-opacity="0.2" stroke="#EFEFEF" stroke-width="1.41" d="M1.25 8.534c0-1.932.418-3.785 1.161-5.151.744-1.366 1.752-2.133 2.804-2.133h63.07c1.052 0 2.06.767 2.804 2.133.743 1.366 1.161 3.219 1.161 5.151v56.432c0 1.932-.418 3.785-1.161 5.151-.744 1.366-1.752 2.133-2.804 2.133H5.215c-1.052 0-2.06-.767-2.804-2.133-.743-1.366-1.161-3.219-1.161-5.151V8.534z" transform="matrix(1.32596 0 0 .72172 834.913 324.343)"/>
            <path id="R4C3_keyshape" fill="#fff" fill-opacity="0.2" stroke="#EFEFEF" stroke-width="1.64" d="M1.25 8.534c0-1.932.516-3.785 1.436-5.151.919-1.366 2.166-2.133 3.466-2.133h61.196c1.3 0 2.547.767 3.466 2.133.92 1.366 1.436 3.219 1.436 5.151v56.432c0 1.932-.516 3.785-1.436 5.151-.919 1.366-2.166 2.133-3.466 2.133H6.152c-1.3 0-2.547-.767-3.466-2.133-.92-1.366-1.436-3.219-1.436-5.151V8.534z" transform="matrix(1.07244 0 0 .72172 750.301 324.343)"/>
            <path id="R4C2_keyshape" fill="#fff" fill-opacity="0.2" stroke="#EFEFEF" stroke-width="1.8" d="M1.25 8.534c0-4.023 2.523-7.284 5.634-7.284h59.732c3.111 0 5.634 3.261 5.634 7.284v56.432c0 4.023-2.523 7.284-5.634 7.284H6.884c-3.111 0-5.634-3.261-5.634-7.284V8.534z" transform="matrix(.933 0 0 .72172 675.448 324.343)"/>
            <path id="R4C1_keyshape" fill="#fff" fill-opacity="0.2" stroke="#EFEFEF" stroke-width="1.8" d="M1.25 8.534c0-4.023 2.523-7.284 5.634-7.284h59.732c3.111 0 5.634 3.261 5.634 7.284v56.432c0 4.023-2.523 7.284-5.634 7.284H6.884c-3.111 0-5.634-3.261-5.634-7.284V8.534z" transform="matrix(.933 0 0 .72172 600.42 324.343)"/>
            <path id="R4C0_keyshape" fill="#fff" fill-opacity="0.2" stroke="#EFEFEF" stroke-width="1.8" d="M1.25 8.534c0-4.023 2.523-7.284 5.634-7.284h59.732c3.111 0 5.634 3.261 5.634 7.284v56.432c0 4.023-2.523 7.284-5.634 7.284H6.884c-3.111 0-5.634-3.261-5.634-7.284V8.534z" transform="matrix(.933 0 0 .72172 525.392 324.343)"/>
            <path id="R3C15_keyshape" fill="#fff" fill-opacity="0.2" stroke="#EFEFEF" stroke-width=".94" d="M1.25 8.516c0-4.013 1.068-7.266 2.385-7.266h66.23c1.317 0 2.385 3.253 2.385 7.266v56.468c0 4.013-1.068 7.266-2.385 7.266H3.635c-1.317 0-2.385-3.253-2.385-7.266V8.516z" transform="matrix(2.20395 0 0 .72344 1274.44 264.74)"/>
            <path id="R3C14_keyshape" fill="#fff" fill-opacity="0.2" stroke="#EFEFEF" stroke-width="1.505" d="M1218.144 270.9a5.256 5.256 0 0 1 5.257-5.256h40.85a5.256 5.256 0 0 1 5.257 5.257v40.85a5.256 5.256 0 0 1-5.256 5.257H1223.4a5.256 5.256 0 0 1-5.257-5.256V270.9z"/>
            <path id="R3C13_keyshape" fill="#fff" fill-opacity="0.2" stroke="#EFEFEF" stroke-width="1.505" d="M1159.084 270.9a5.256 5.256 0 0 1 5.257-5.256h40.85a5.256 5.256 0 0 1 5.257 5.257v40.85a5.256 5.256 0 0 1-5.256 5.257h-40.851a5.256 5.256 0 0 1-5.257-5.256V270.9z"/>
            <path id="R3C12_keyshape" fill="#fff" fill-opacity="0.2" stroke="#EFEFEF" stroke-width="1.505" d="M1100.024 270.9a5.256 5.256 0 0 1 5.257-5.256h40.85a5.256 5.256 0 0 1 5.257 5.257v40.85a5.256 5.256 0 0 1-5.256 5.257h-40.851a5.256 5.256 0 0 1-5.257-5.256V270.9z"/>
            <path id="R3C11_keyshape" fill="#fff" fill-opacity="0.2" stroke="#EFEFEF" stroke-width="1.505" d="M1040.964 270.9a5.256 5.256 0 0 1 5.257-5.256h40.85a5.256 5.256 0 0 1 5.257 5.257v40.85a5.256 5.256 0 0 1-5.256 5.257h-40.851a5.256 5.256 0 0 1-5.257-5.256V270.9z"/>
            <path id="R3C10_keyshape" fill="#fff" fill-opacity="0.2" stroke="#EFEFEF" stroke-width="1.505" d="M981.908 270.9a5.256 5.256 0 0 1 5.257-5.256h40.85a5.256 5.256 0 0 1 5.257 5.257v40.85a5.256 5.256 0 0 1-5.256 5.257h-40.851a5.256 5.256 0 0 1-5.257-5.256V270.9z"/>
            <path id="R3C5_keyshape" fill="#fff" fill-opacity="0.2" stroke="#EFEFEF" stroke-width="1.505" d="M892.85 270.9a5.256 5.256 0 0 1 5.257-5.256h40.85a5.256 5.256 0 0 1 5.257 5.257v40.85a5.256 5.256 0 0 1-5.256 5.257h-40.851a5.256 5.256 0 0 1-5.257-5.256V270.9z"/>
            <path id="R3C4_keyshape" fill="#fff" fill-opacity="0.2" stroke="#EFEFEF" stroke-width="1.505" d="M833.792 270.9a5.256 5.256 0 0 1 5.257-5.256h40.85a5.256 5.256 0 0 1 5.257 5.257v40.85a5.256 5.256 0 0 1-5.256 5.257h-40.851a5.256 5.256 0 0 1-5.257-5.256V270.9z"/>
            <path id="R3C3_keyshape" fill="#fff" fill-opacity="0.2" stroke="#EFEFEF" stroke-width="1.505" d="M774.733 270.9a5.256 5.256 0 0 1 5.257-5.256h40.85a5.256 5.256 0 0 1 5.257 5.257v40.85a5.256 5.256 0 0 1-5.256 5.257H779.99a5.256 5.256 0 0 1-5.257-5.256V270.9z"/>
            <path id="R3C2_keyshape" fill="#fff" fill-opacity="0.2" stroke="#EFEFEF" stroke-width="1.505" d="M715.675 270.9a5.256 5.256 0 0 1 5.257-5.256h40.85a5.256 5.256 0 0 1 5.257 5.257v40.85a5.256 5.256 0 0 1-5.256 5.257h-40.851a5.256 5.256 0 0 1-5.257-5.256V270.9z"/>
            <path id="R3C1_keyshape" fill="#fff" fill-opacity="0.2" stroke="#EFEFEF" stroke-width="1.505" d="M656.617 270.9a5.256 5.256 0 0 1 5.257-5.256h40.85a5.256 5.256 0 0 1 5.257 5.257v40.85a5.256 5.256 0 0 1-5.256 5.257h-40.851a5.256 5.256 0 0 1-5.257-5.256V270.9z"/>
            <path id="R3C0_keyshape" fill="#fff" fill-opacity="0.2" stroke="#EFEFEF" stroke-width="1.13" d="M1.25 8.516c0-4.013 1.366-7.266 3.05-7.266h64.9c1.684 0 3.05 3.253 3.05 7.266v56.468c0 4.013-1.366 7.266-3.05 7.266H4.3c-1.684 0-3.05-3.253-3.05-7.266V8.516z" transform="matrix(1.72344 0 0 .72344 524.404 264.74)"/>
            <path id="R2C15_keyshape" fill="#fff" fill-opacity="0.2" stroke="#EFEFEF" stroke-width="1.13" d="M1.25 8.516c0-4.013 1.354-7.266 3.024-7.266h64.952c1.67 0 3.024 3.253 3.024 7.266v56.468c0 4.013-1.354 7.266-3.024 7.266H4.274c-1.67 0-3.024-3.253-3.024-7.266V8.516z" transform="matrix(1.73834 0 0 .72344 1308.09 205.139)"/>
            <path id="R2C14_keyshape" fill="#fff" fill-opacity="0.2" stroke="#EFEFEF" stroke-width="1.505" d="M1251.204 211.3a5.256 5.256 0 0 1 5.257-5.257h40.85a5.256 5.256 0 0 1 5.257 5.257v40.85a5.256 5.256 0 0 1-5.256 5.257h-40.851a5.256 5.256 0 0 1-5.257-5.256V211.3z"/>
            <path id="R2C13_keyshape" fill="#fff" fill-opacity="0.2" stroke="#EFEFEF" stroke-width="1.505" d="M1192.144 211.3a5.256 5.256 0 0 1 5.257-5.257h40.85a5.256 5.256 0 0 1 5.257 5.257v40.85a5.256 5.256 0 0 1-5.256 5.257H1197.4a5.256 5.256 0 0 1-5.257-5.256V211.3z"/>
            <path id="R2C12_keyshape" fill="#fff" fill-opacity="0.2" stroke="#EFEFEF" stroke-width="1.505" d="M1133.084 211.3a5.256 5.256 0 0 1 5.257-5.257h40.85a5.256 5.256 0 0 1 5.257 5.257v40.85a5.256 5.256 0 0 1-5.256 5.257h-40.851a5.256 5.256 0 0 1-5.257-5.256V211.3z"/>
            <path id="R2C11_keyshape" fill="#fff" fill-opacity="0.2" stroke="#EFEFEF" stroke-width="1.505" d="M1074.024 211.3a5.256 5.256 0 0 1 5.257-5.257h40.85a5.256 5.256 0 0 1 5.257 5.257v40.85a5.256 5.256 0 0 1-5.256 5.257h-40.851a5.256 5.256 0 0 1-5.257-5.256V211.3z"/>
            <path id="R2C10_keyshape" fill="#fff" fill-opacity="0.2" stroke="#EFEFEF" stroke-width="1.505" d="M1014.964 211.3a5.256 5.256 0 0 1 5.257-5.257h40.85a5.256 5.256 0 0 1 5.257 5.257v40.85a5.256 5.256 0 0 1-5.256 5.257h-40.851a5.256 5.256 0 0 1-5.257-5.256V211.3z"/>
            <path id="R2C9_keyshape" fill="#fff" fill-opacity="0.2" stroke="#EFEFEF" stroke-width="1.505" d="M955.908 211.3a5.256 5.256 0 0 1 5.257-5.257h40.85a5.256 5.256 0 0 1 5.257 5.257v40.85a5.256 5.256 0 0 1-5.256 5.257h-40.851a5.256 5.256 0 0 1-5.257-5.256V211.3z"/>
            <path id="R2C5_keyshape" fill="#fff" fill-opacity="0.2" stroke="#EFEFEF" stroke-width="1.505" d="M866.85 211.3a5.256 5.256 0 0 1 5.257-5.257h40.85a5.256 5.256 0 0 1 5.257 5.257v40.85a5.256 5.256 0 0 1-5.256 5.257h-40.851a5.256 5.256 0 0 1-5.257-5.256V211.3z"/>
            <path id="R2C4_keyshape" fill="#fff" fill-opacity="0.2" stroke="#EFEFEF" stroke-width="1.505" d="M807.792 211.3a5.256 5.256 0 0 1 5.257-5.257h40.85a5.256 5.256 0 0 1 5.257 5.257v40.85a5.256 5.256 0 0 1-5.256 5.257h-40.851a5.256 5.256 0 0 1-5.257-5.256V211.3z"/>
            <path id="R2C3_keyshape" fill="#fff" fill-opacity="0.2" stroke="#EFEFEF" stroke-width="1.505" d="M748.733 211.3a5.256 5.256 0 0 1 5.257-5.257h40.85a5.256 5.256 0 0 1 5.257 5.257v40.85a5.256 5.256 0 0 1-5.256 5.257H753.99a5.256 5.256 0 0 1-5.257-5.256V211.3z"/>
            <path id="R2C2_keyshape" fill="#fff" fill-opacity="0.2" stroke="#EFEFEF" stroke-width="1.505" d="M689.675 211.3a5.256 5.256 0 0 1 5.257-5.257h40.85a5.256 5.256 0 0 1 5.257 5.257v40.85a5.256 5.256 0 0 1-5.256 5.257h-40.851a5.256 5.256 0 0 1-5.257-5.256V211.3z"/>
            <path id="R2C1_keyshape" fill="#fff" fill-opacity="0.2" stroke="#EFEFEF" stroke-width="1.505" d="M630.617 211.3a5.256 5.256 0 0 1 5.257-5.257h40.85a5.256 5.256 0 0 1 5.257 5.257v40.85a5.256 5.256 0 0 1-5.256 5.257h-40.851a5.256 5.256 0 0 1-5.257-5.256V211.3z"/>
            <path id="R2C0_keyshape" fill="#fff" fill-opacity="0.2" stroke="#EFEFEF" stroke-width="1.38" d="M1.25 8.516c0-4.013 1.734-7.266 3.873-7.266h63.254c2.139 0 3.873 3.253 3.873 7.266v56.468c0 4.013-1.734 7.266-3.873 7.266H5.123c-2.139 0-3.873-3.253-3.873-7.266V8.516z" transform="matrix(1.35724 0 0 .72344 524.862 205.139)"/>
            <path id="R1C8_keyshape" fill="#fff" fill-opacity="0.2" stroke="#EFEFEF" stroke-width="1.59" d="M1.25 8.516c0-1.927.495-3.775 1.377-5.138.882-1.362 2.079-2.128 3.326-2.128h61.594c1.247 0 2.444.766 3.326 2.128.882 1.363 1.377 3.211 1.377 5.138v56.468c0 1.927-.495 3.775-1.377 5.138-.882 1.362-2.079 2.128-3.326 2.128H5.953c-1.247 0-2.444-.766-3.326-2.128-.882-1.363-1.377-3.211-1.377-5.138V8.516z" transform="matrix(1.1178 0 0 .72344 1352.92 145.538)"/>
            <path id="R1C15_keyshape" fill="#fff" fill-opacity="0.2" stroke="#EFEFEF" stroke-width="1.505" d="M1295.254 151.699a5.256 5.256 0 0 1 5.257-5.257h40.85a5.256 5.256 0 0 1 5.257 5.257v40.85a5.256 5.256 0 0 1-5.256 5.257h-40.851a5.256 5.256 0 0 1-5.257-5.256v-40.851z"/>
            <path id="R1C14_keyshape" fill="#fff" fill-opacity="0.2" stroke="#EFEFEF" stroke-width="1.505" d="M1236.204 151.699a5.256 5.256 0 0 1 5.257-5.257h40.85a5.256 5.256 0 0 1 5.257 5.257v40.85a5.256 5.256 0 0 1-5.256 5.257h-40.851a5.256 5.256 0 0 1-5.257-5.256v-40.851z"/>
            <path id="R1C13_keyshape" fill="#fff" fill-opacity="0.2" stroke="#EFEFEF" stroke-width="1.505" d="M1177.144 151.699a5.256 5.256 0 0 1 5.257-5.257h40.85a5.256 5.256 0 0 1 5.257 5.257v40.85a5.256 5.256 0 0 1-5.256 5.257H1182.4a5.256 5.256 0 0 1-5.257-5.256v-40.851z"/>
            <path id="R1C12_keyshape" fill="#fff" fill-opacity="0.2" stroke="#EFEFEF" stroke-width="1.505" d="M1118.084 151.699a5.256 5.256 0 0 1 5.257-5.257h40.85a5.256 5.256 0 0 1 5.257 5.257v40.85a5.256 5.256 0 0 1-5.256 5.257h-40.851a5.256 5.256 0 0 1-5.257-5.256v-40.851z"/>
            <path id="R1C11_keyshape" fill="#fff" fill-opacity="0.2" stroke="#EFEFEF" stroke-width="1.505" d="M1059.024 151.699a5.256 5.256 0 0 1 5.257-5.257h40.85a5.256 5.256 0 0 1 5.257 5.257v40.85a5.256 5.256 0 0 1-5.256 5.257h-40.851a5.256 5.256 0 0 1-5.257-5.256v-40.851z"/>
            <path id="R1C10_keyshape" fill="#fff" fill-opacity="0.2" stroke="#EFEFEF" stroke-width="1.505" d="M999.966 151.699a5.256 5.256 0 0 1 5.257-5.257h40.85a5.256 5.256 0 0 1 5.257 5.257v40.85a5.256 5.256 0 0 1-5.256 5.257h-40.851a5.256 5.256 0 0 1-5.257-5.256v-40.851z"/>
            <path id="R1C9_keyshape" fill="#fff" fill-opacity="0.2" stroke="#EFEFEF" stroke-width="1.505" d="M940.908 151.699a5.256 5.256 0 0 1 5.257-5.257h40.85a5.256 5.256 0 0 1 5.257 5.257v40.85a5.256 5.256 0 0 1-5.256 5.257h-40.851a5.256 5.256 0 0 1-5.257-5.256v-40.851z"/>
            <path id="R1C5_keyshape" fill="#fff" fill-opacity="0.2" stroke="#EFEFEF" stroke-width="1.505" d="M851.85 151.699a5.256 5.256 0 0 1 5.257-5.257h40.85a5.256 5.256 0 0 1 5.257 5.257v40.85a5.256 5.256 0 0 1-5.256 5.257h-40.851a5.256 5.256 0 0 1-5.257-5.256v-40.851z"/>
            <path id="R1C4_keyshape" fill="#fff" fill-opacity="0.2" stroke="#EFEFEF" stroke-width="1.505" d="M792.792 151.699a5.256 5.256 0 0 1 5.257-5.257h40.85a5.256 5.256 0 0 1 5.257 5.257v40.85a5.256 5.256 0 0 1-5.256 5.257h-40.851a5.256 5.256 0 0 1-5.257-5.256v-40.851z"/>
            <path id="R1C3_keyshape" fill="#fff" fill-opacity="0.2" stroke="#EFEFEF" stroke-width="1.505" d="M733.733 151.699a5.256 5.256 0 0 1 5.257-5.257h40.85a5.256 5.256 0 0 1 5.257 5.257v40.85a5.256 5.256 0 0 1-5.256 5.257H738.99a5.256 5.256 0 0 1-5.257-5.256v-40.851z"/>
            <path id="R1C2_keyshape" fill="#fff" fill-opacity="0.2" stroke="#EFEFEF" stroke-width="1.505" d="M674.675 151.699a5.256 5.256 0 0 1 5.257-5.257h40.85a5.256 5.256 0 0 1 5.257 5.257v40.85a5.256 5.256 0 0 1-5.256 5.257h-40.851a5.256 5.256 0 0 1-5.257-5.256v-40.851z"/>
            <path id="R1C1_keyshape" fill="#fff" fill-opacity="0.2" stroke="#EFEFEF" stroke-width="1.505" d="M615.617 151.699a5.256 5.256 0 0 1 5.257-5.257h40.85a5.256 5.256 0 0 1 5.257 5.257v40.85a5.256 5.256 0 0 1-5.256 5.257h-40.851a5.256 5.256 0 0 1-5.257-5.256v-40.851z"/>
            <path id="R1C0_keyshape" fill="#fff" fill-opacity="0.2" stroke="#EFEFEF" stroke-width="1.57" d="M1.25 8.516c0-4.013 2.054-7.266 4.587-7.266h61.826c2.533 0 4.587 3.253 4.587 7.266v56.468c0 4.013-2.054 7.266-4.587 7.266H5.837c-2.533 0-4.587-3.253-4.587-7.266V8.516z" transform="matrix(1.14597 0 0 .72344 525.126 145.538)"/>
            <path id="R0C15_keyshape" fill="#fff" fill-opacity="0.2" stroke="#EFEFEF" stroke-width="1.28" d="M1.25 8.516c0-4.013 1.528-7.266 3.413-7.266h64.174c1.885 0 3.413 3.253 3.413 7.266v56.468c0 4.013-1.528 7.266-3.413 7.266H4.663c-1.885 0-3.413-3.253-3.413-7.266V8.516z" transform="matrix(1.54034 0 0 .72344 1322.39 85.937)"/>
            <path id="R0C14_keyshape" fill="#fff" fill-opacity="0.2" stroke="#EFEFEF" stroke-width="1.505" d="M1265.254 92.098a5.256 5.256 0 0 1 5.257-5.257h40.85a5.256 5.256 0 0 1 5.257 5.257v40.85a5.256 5.256 0 0 1-5.256 5.257h-40.851a5.256 5.256 0 0 1-5.257-5.256V92.098z"/>
            <path id="R0C13_keyshape" fill="#fff" fill-opacity="0.2" stroke="#EFEFEF" stroke-width="1.505" d="M1206.204 92.098a5.256 5.256 0 0 1 5.257-5.257h40.85a5.256 5.256 0 0 1 5.257 5.257v40.85a5.256 5.256 0 0 1-5.256 5.257h-40.851a5.256 5.256 0 0 1-5.257-5.256V92.098z"/>
            <path id="R0C12_keyshape" fill="#fff" fill-opacity="0.2" stroke="#EFEFEF" stroke-width="1.505" d="M1147.144 92.098a5.256 5.256 0 0 1 5.257-5.257h40.85a5.256 5.256 0 0 1 5.257 5.257v40.85a5.256 5.256 0 0 1-5.256 5.257H1152.4a5.256 5.256 0 0 1-5.257-5.256V92.098z"/>
            <path id="R0C11_keyshape" fill="#fff" fill-opacity="0.2" stroke="#EFEFEF" stroke-width="1.505" d="M1088.084 92.098a5.256 5.256 0 0 1 5.257-5.257h40.85a5.256 5.256 0 0 1 5.257 5.257v40.85a5.256 5.256 0 0 1-5.256 5.257h-40.851a5.256 5.256 0 0 1-5.257-5.256V92.098z"/>
            <path id="R0C10_keyshape" fill="#fff" fill-opacity="0.2" stroke="#EFEFEF" stroke-width="1.505" d="M1029.024 92.098a5.256 5.256 0 0 1 5.257-5.257h40.85a5.256 5.256 0 0 1 5.257 5.257v40.85a5.256 5.256 0 0 1-5.256 5.257h-40.851a5.256 5.256 0 0 1-5.257-5.256V92.098z"/>
            <path id="R0C9_keyshape" fill="#fff" fill-opacity="0.2" stroke="#EFEFEF" stroke-width="1.505" d="M969.966 92.098a5.256 5.256 0 0 1 5.257-5.257h40.85a5.256 5.256 0 0 1 5.257 5.257v40.85a5.256 5.256 0 0 1-5.256 5.257h-40.851a5.256 5.256 0 0 1-5.257-5.256V92.098z"/>
            <path id="R0C6_keyshape" fill="#fff" fill-opacity="0.2" stroke="#EFEFEF" stroke-width="1.505" d="M880.908 92.098a5.256 5.256 0 0 1 5.257-5.257h40.85a5.256 5.256 0 0 1 5.257 5.257v40.85a5.256 5.256 0 0 1-5.256 5.257h-40.851a5.256 5.256 0 0 1-5.257-5.256V92.098z"/>
            <path id="R0C5_keyshape" fill="#fff" fill-opacity="0.2" stroke="#EFEFEF" stroke-width="1.505" d="M821.85 92.098a5.256 5.256 0 0 1 5.257-5.257h40.85a5.256 5.256 0 0 1 5.257 5.257v40.85a5.256 5.256 0 0 1-5.256 5.257h-40.851a5.256 5.256 0 0 1-5.257-5.256V92.098z"/>
            <path id="R0C4_keyshape" fill="#fff" fill-opacity="0.2" stroke="#EFEFEF" stroke-width="1.505" d="M762.792 92.098a5.256 5.256 0 0 1 5.257-5.257h40.85a5.256 5.256 0 0 1 5.257 5.257v40.85a5.256 5.256 0 0 1-5.256 5.257h-40.851a5.256 5.256 0 0 1-5.257-5.256V92.098z"/>
            <path id="R0C3_keyshape" fill="#fff" fill-opacity="0.2" stroke="#EFEFEF" stroke-width="1.505" d="M703.733 92.098a5.256 5.256 0 0 1 5.257-5.257h40.85a5.256 5.256 0 0 1 5.257 5.257v40.85a5.256 5.256 0 0 1-5.256 5.257H708.99a5.256 5.256 0 0 1-5.257-5.256V92.098z"/>
            <path id="R0C2_keyshape" fill="#fff" fill-opacity="0.2" stroke="#EFEFEF" stroke-width="1.505" d="M644.675 92.098a5.256 5.256 0 0 1 5.257-5.257h40.85a5.256 5.256 0 0 1 5.257 5.257v40.85a5.256 5.256 0 0 1-5.256 5.257h-40.851a5.256 5.256 0 0 1-5.257-5.256V92.098z"/>
            <path id="R0C1_keyshape" fill="#fff" fill-opacity="0.2" stroke="#EFEFEF" stroke-width="1.505" d="M585.617 92.098a5.256 5.256 0 0 1 5.257-5.257h40.85a5.256 5.256 0 0 1 5.257 5.257v40.85a5.256 5.256 0 0 1-5.256 5.257h-40.851a5.256 5.256 0 0 1-5.257-5.256V92.098z"/>
            <path id="R0C0_keyshape" fill="#fff" fill-opacity="0.2" stroke="#EFEFEF" stroke-width="1.505" d="M526.558 92.098a5.256 5.256 0 0 1 5.257-5.257h40.85a5.256 5.256 0 0 1 5.257 5.257v40.85a5.256 5.256 0 0 1-5.256 5.257h-40.851a5.256 5.256 0 0 1-5.257-5.256V92.098z"/>
        </g>
       
    </g>
</svg>
