<?xml version="1.0" encoding="UTF-8" standalone="no"?><!DOCTYPE svg PUBLIC "-//W3C//DTD SVG 1.1//EN" "http://www.w3.org/Graphics/SVG/1.1/DTD/svg11.dtd"><svg width="100%" height="100%" viewBox="0 0 559 584" version="1.1" xmlns="http://www.w3.org/2000/svg" xmlns:xlink="http://www.w3.org/1999/xlink" xml:space="preserve" xmlns:serif="http://www.serif.com/" style="

fill-rule:evenodd;clip-rule:evenodd;stroke-linejoin:round;stroke-miterlimit:1.41421;"><g><g id="XMLID_62_"><path id="XMLID_51_" d="M355.417,493.75c31.25,-58.75 53.75,-121.25 67.083,-186.667l37.083,-164.583l-146.666,-54.167c30,-9.166 61.25,-14.583 92.5,-15.833c5.833,-0.417 11.25,-0.417 16.666,-0.417c2.5,0 5,0 7.917,0c43.333,0.834 85.833,9.167 126.25,24.584l-73.333,244.166c-2.084,7.5 -5.834,13.75 -10.834,19.584l-41.25,47.083l-75.416,86.25Z" style="

fill:#fff;

fill-rule:nonzero;"/><path id="XMLID_47_" d="M422.5,74.583c2.5,0 5,0 7.917,0c42.5,0.834 84.166,8.75 123.75,23.75l-57.5,190.834l-2.917,10l-12.5,41.666c-2.083,7.084 -5.833,13.334 -10.417,18.75l-35.416,40.417l-2.917,3.333l-0.833,0.834l-22.5,25.833l-43.75,50c27.083,-54.583 47.083,-112.083 59.583,-172.083l36.667,-162.5l0.833,-3.75l-3.333,-1.25l-22.084,-7.917l-24.166,-8.75l-92.917,-34.167c27.917,-7.916 56.667,-12.5 86.25,-13.75c5.417,-1.25 10.833,-1.25 16.25,-1.25m0,-4.166c-5.417,0 -11.25,0 -16.667,0.416c-34.583,1.667 -67.5,7.5 -99.166,17.917l104.583,38.75l24.167,8.75l22.083,7.917l-36.667,162.5c-15,72.083 -40.833,140 -76.25,202.5l67.084,-76.667l23.333,-26.667l2.917,-3.333l35.416,-40.417c5,-5.833 9.167,-12.916 11.25,-20.416l12.5,-41.667l61.25,-204.167c-40,-15.416 -83.333,-24.583 -128.75,-25.416c-1.666,0 -4.583,0 -7.083,0Z" style="

fill:#fff;

fill-rule:nonzero;"/></g><g id="XMLID_61_"><path id="XMLID_44_" d="M130,282.083c-10.417,-9.166 -20,-18.75 -29.583,-28.75c-5,-5.416 -10,-10.833 -15,-16.666c-35.834,-41.667 -63.75,-88.75 -82.5,-140l58.333,-20.834l200.417,-70.833c5.833,-2.083 11.666,-2.917 17.5,-2.917c5.833,0 12.083,0.834 17.5,2.917l143.75,50.833c-4.167,-0.416 -7.917,-0.833 -12.084,-0.833c-7.5,-0.417 -15.416,-0.833 -22.916,-0.833l-2.084,0c-42.916,0.416 -84.583,7.5 -124.583,21.666l-0.833,0.417l-180,66.667l32.083,139.166Z" style="

fill:#fff;

fill-rule:nonzero;"/><path id="XMLID_29_" d="M279.167,4.167c5.833,0 11.666,0.833 17.083,2.916l45,15.834l58.333,20.833l25.834,9.167c-6.667,-0.417 -13.334,-0.417 -19.584,-0.417l-1.25,0l-0.833,0c-42.5,0.417 -84.583,7.5 -124.583,21.667l-1.25,0.416l-178.334,65.834l-3.333,1.25l12.5,56.25l6.25,27.5l11.667,51.25c-8.334,-7.917 -16.667,-15.834 -24.584,-24.167c-5,-5.417 -10,-10.833 -15,-16.667c-35,-41.25 -62.5,-87.5 -81.666,-137.5l45,-15.833l22.916,-7.917l138.75,-49.166l50.417,-17.917c5,-2.5 10.833,-3.333 16.667,-3.333m0,-4.167c-6.25,0 -12.5,1.25 -18.334,3.333l-50.416,17.917l-161.667,57.083l-48.75,17.5c19.583,52.5 47.917,100.834 83.75,142.917c5,5.833 10,11.25 15,16.667c10.833,11.666 22.5,22.916 34.583,33.333l-14.166,-63.75l-6.25,-28.333l-11.667,-52.5l178.333,-65.834c38.75,-13.75 80.834,-21.666 124.584,-21.666c0.833,0 1.25,0 2.083,0c7.5,0 15,0.416 22.5,0.833c10.417,0.417 20.417,1.667 30.417,2.917l-31.667,-11.25l-26.25,-9.167l-58.333,-20.833l-45,-15.834c-6.25,-2.5 -12.5,-3.333 -18.75,-3.333Z" style="

fill:#fff;

fill-rule:nonzero;"/></g><g id="XMLID_60_"><path id="XMLID_26_" d="M127.5,407.917l-41.25,-47.084c-5,-5.833 -8.75,-12.5 -10.833,-19.583l-41.667,-139.167c11.25,19.584 24.167,37.917 38.333,55.834c4.584,5.833 9.584,12.083 14.584,17.5c16.666,19.166 35.416,37.083 55,53.333l137.5,113.333l106.666,-87.916c-22.083,81.25 -57.916,157.5 -107.083,226.666c-12.917,-15.416 -95.833,-110 -151.25,-172.916Z" style="

fill:#fff;

fill-rule:nonzero;"/><path id="XMLID_23_" d="M40.417,217.083c9.166,14.584 19.166,28.75 30,42.084c4.583,5.833 9.583,12.083 15,17.916c17.083,19.167 35.416,37.084 55.416,53.334l136.25,112.083l2.5,2.083l2.5,-2.083l29.584,-24.583l28.333,-23.334l42.083,-34.583c-21.666,77.917 -56.666,151.25 -103.333,217.5c-17.083,-19.583 -93.333,-106.667 -146.667,-167.083l-6.25,-7.084l-11.25,-12.916l-7.083,-7.917l-9.167,-10.833l-10.833,-12.5c-5,-5.417 -8.333,-12.084 -10.417,-18.75l-5.833,-19.584l-9.583,-32.083l-3.334,-11.25l-2.5,-8.75l-15.416,-51.667m-14.167,-32.916l28.333,94.583l3.334,11.25l9.583,32.083l5.833,19.584c2.084,7.5 6.25,14.583 11.25,20.416c5,5.417 11.667,13.334 20,22.917c5.417,6.25 11.667,13.333 18.334,20.833c59.166,67.084 153.75,175.417 155.833,177.917c50.417,-70 88.333,-149.583 110.417,-235.833l-52.5,42.916l-28.334,23.334l-29.583,24.583l-136.25,-112.083c-19.583,-16.25 -37.917,-33.75 -54.583,-52.917c-5,-5.833 -10,-11.667 -14.584,-17.5c-17.916,-22.083 -33.75,-46.25 -47.083,-72.083Z" style="

fill:#fff;

fill-rule:nonzero;"/></g></g></svg>